# xmcd
# 
# Track frame offsets:
#     183
#     16120
#     31698
#     46713
#     68600
#     83263
#     102843
#     117833
#     132365
#     145813
#     159153
#     176330
#     192258
#     206425
#     221568
#     236698
#     249835
# 
# Disc length: 3516 seconds
# 
# Revision: 4
# Processed by: cddbd v1.5.1PL2 Copyright (c) Steve Scherf et al.
# Submitted via: BonkEnc v0.9
# 
DISCID=c80dba11
DTITLE=Truck Stop - Ich Möcht' So Gern Dave Dudley Hör'n - CD 1
DYEAR=1900
DGENRE=Country
TTITLE0=Ich Möcht' So Gern Dave Dudley Hör'n
TTITLE1=Alles Bingo
TTITLE2=Easy Rider
TTITLE3=Fluß Im Abendwind
TTITLE4=Ein Tag Wie Ein Freund
TTITLE5=Nein Danke, Ich Rauch' Nicht Mehr
TTITLE6=Lass Dir Nie Den Tag Verderben
TTITLE7=Der Tramp
TTITLE8=Take It Easy, Altes Haus
TTITLE9=Arizona, Arizona
TTITLE10=Old Texas Town, Die Westernstadt
TTITLE11=Hannas Mann
TTITLE12=Manana
TTITLE13=Mein Opa, Das Bin Ich
TTITLE14=Kopf Hoch, Cowboy
TTITLE15=Der Trabbi Und Der Truck
TTITLE16=Schottischer Whisky
EXTD=
EXTT0=
EXTT1=
EXTT2=
EXTT3=
EXTT4=
EXTT5=
EXTT6=
EXTT7=
EXTT8=
EXTT9=
EXTT10=
EXTT11=
EXTT12=
EXTT13=
EXTT14=
EXTT15=
EXTT16=
PLAYORDER=
